<svg width="263" height="149" viewBox="0 0 263 149" fill="none" xmlns="http://www.w3.org/2000/svg">
<path d="M21.2509 149H21.2517L246.404 147.981C255.57 147.939 262.985 137.275 262.987 124.133L263 23.857C263.002 10.6823 255.553 0 246.364 0H22.1834C12.997 0 5.54943 10.6757 5.54752 23.8478L5.53211 126.755C5.53211 127.117 5.53831 127.477 5.55107 127.838C5.59555 131.411 5.54086 134.351 5.3879 136.659C5.2343 138.976 4.98344 140.626 4.64826 141.64C4.015 143.556 2.65569 145.449 0.527017 147.3C0.526835 147.301 0.526653 147.301 0.526471 147.301L0.200772 147.579L0.186003 147.591L0.172696 147.607L0.127849 147.66L0.113627 147.676L0.101411 147.697C-0.0118959 147.881 -0.0357777 148.157 0.0579304 148.38C0.125203 148.541 0.241792 148.646 0.370778 148.663C4.87242 149.282 8.60588 147.822 11.5466 144.256C14.2191 147.228 17.5892 149 21.2509 149Z" fill="white"/>
</svg>
